<svg width="13" height="14" viewBox="0 0 13 14" fill="none" xmlns="http://www.w3.org/2000/svg">
<path d="M12.7353 5.332C12.8173 5.77133 12.862 6.23067 12.862 6.71C12.862 10.4593 10.3527 13.1253 6.56267 13.1253C5.70077 13.1256 4.84727 12.956 4.05093 12.6263C3.25459 12.2966 2.53103 11.8132 1.92157 11.2038C1.31212 10.5943 0.82873 9.87074 0.499018 9.0744C0.169307 8.27806 -0.000262481 7.42456 3.04968e-07 6.56267C-0.000262481 5.70077 0.169307 4.84727 0.499018 4.05093C0.82873 3.25459 1.31212 2.53103 1.92157 1.92157C2.53103 1.31212 3.25459 0.82873 4.05093 0.499018C4.84727 0.169307 5.70077 -0.000262481 6.56267 3.04968e-07C8.33467 3.04968e-07 9.81533 0.652 10.9513 1.71067L9.10133 3.56067V3.556C8.41267 2.9 7.53867 2.56333 6.56267 2.56333C4.39733 2.56333 2.63733 4.39267 2.63733 6.55867C2.63733 8.724 4.39733 10.5573 6.56267 10.5573C8.52733 10.5573 9.86467 9.434 10.1393 7.89133H6.56267V5.332H12.736H12.7353Z" fill="white"/>
</svg>
